<?xml version="1.0" standalone="no"?>
<!DOCTYPE svg PUBLIC "-//W3C//DTD SVG 20010904//EN"
 "http://www.w3.org/TR/2001/REC-SVG-20010904/DTD/svg10.dtd">
<svg version="1.0" xmlns="http://www.w3.org/2000/svg"
 width="512.000000pt" height="512.000000pt" viewBox="0 0 512.000000 512.000000"
 preserveAspectRatio="xMidYMid meet">
<metadata>
Created by potrace 1.11, written by Peter Selinger 2001-2013
</metadata>
<g transform="translate(0.000000,512.000000) scale(0.100000,-0.100000)"
fill="#000000" stroke="none">
<path d="M1884 4695 c-491 -145 -942 -484 -1238 -930 -127 -190 -243 -456
-300 -682 -53 -214 -61 -281 -61 -558 0 -208 4 -280 18 -360 27 -147 62 -279
108 -409 45 -126 168 -380 184 -378 7 0 1395 3323 1395 3339 0 7 -31 0 -106
-22z"/>
<path d="M3163 4683 c-4 -10 -78 -189 -164 -398 l-157 -380 296 -3 c162 -1
299 1 303 5 4 5 46 103 94 218 48 116 90 213 94 217 6 7 742 -800 748 -820 3
-8 -1378 -725 -1384 -718 -2 2 34 97 81 211 47 115 86 212 86 217 0 4 -132 8
-293 8 l-294 0 -10 -22 c-6 -13 -259 -619 -563 -1347 l-554 -1323 25 -19 c34
-26 236 -115 338 -149 230 -77 417 -110 671 -117 392 -11 737 65 1082 238
1099 552 1559 1895 1027 3000 -37 76 -66 126 -73 123 -7 -3 -131 125 -276 283
-548 596 -500 550 -647 626 -128 66 -328 149 -391 162 -26 5 -33 3 -39 -12z
m1197 -1435 c-215 -523 -959 -2310 -962 -2314 -3 -2 -273 -3 -600 -2 l-596 3
348 830 347 830 759 397 c417 219 760 398 761 398 1 0 -25 -64 -57 -142z"/>
</g>
</svg>
